<?xml version="1.0" encoding="utf-8"?>
<!-- Generator: Adobe Illustrator 25.4.1, SVG Export Plug-In . SVG Version: 6.00 Build 0)  -->
<svg version="1.1" id="Capa_1" xmlns="http://www.w3.org/2000/svg" xmlns:xlink="http://www.w3.org/1999/xlink" x="0px" y="0px"
	 viewBox="0 0 49 48" style="enable-background:new 0 0 49 48;" xml:space="preserve">
<style type="text/css">
	.st0{fill:#0C1928;}
	.st1{fill:#FFFFFF;}
	.st2{fill:#0C1928;stroke:#0C1928;}
</style>
<g>
	<circle class="st0" cx="24.5" cy="24" r="20"/>
	<path class="st1" d="M13.5,14c-0.55,0-1,0.45-1,1s0.45,1,1,1V14z M15.72,15l0.98-0.2c-0.09-0.47-0.5-0.8-0.98-0.8V15z M15.19,17.41
		c0.11,0.54,0.64,0.89,1.18,0.78c0.54-0.11,0.89-0.64,0.78-1.18L15.19,17.41z M17.94,25.05c-0.55,0-1,0.45-1,1s0.45,1,1,1V25.05z
		 M29.06,26.05v1c0.38,0,0.72-0.21,0.89-0.55L29.06,26.05z M33.5,17.21l0.89,0.45c0.16-0.31,0.14-0.68-0.04-0.97
		c-0.18-0.3-0.5-0.48-0.85-0.48V17.21z M16.17,16.21c-0.55,0-1,0.45-1,1c0,0.55,0.45,1,1,1V16.21z M16.96,26.25
		c0.11,0.54,0.64,0.89,1.18,0.78c0.54-0.11,0.89-0.64,0.78-1.18L16.96,26.25z M17.15,17.01c-0.11-0.54-0.64-0.89-1.18-0.78
		c-0.54,0.11-0.89,0.64-0.78,1.18L17.15,17.01z M18.65,26.76c0.39-0.39,0.39-1.02,0-1.41c-0.39-0.39-1.02-0.39-1.41,0L18.65,26.76z
		 M15.4,28.59l-0.71-0.71L15.4,28.59z M29.06,31.47c0.55,0,1-0.45,1-1c0-0.55-0.45-1-1-1V31.47z M29.06,30.47h-1
		c0,0.27,0.11,0.52,0.29,0.71L29.06,30.47z M31.28,32.68l-0.71,0.71c0.19,0.19,0.44,0.29,0.71,0.29V32.68z M20.17,32.68l-0.86-0.5
		c-0.09,0.15-0.14,0.33-0.14,0.5H20.17z M20.17,34.89h-1c0,0.18,0.05,0.35,0.14,0.5L20.17,34.89z M13.5,16h2.22v-2H13.5V16z
		 M14.74,15.2l0.44,2.21l1.96-0.39L16.7,14.8L14.74,15.2z M17.94,27.05h11.11v-2H17.94V27.05z M29.95,26.5l4.44-8.84l-1.79-0.9
		l-4.44,8.84L29.95,26.5z M33.5,16.21H16.17v2H33.5V16.21z M18.92,25.86l-1.78-8.84l-1.96,0.39l1.78,8.84L18.92,25.86z M17.24,25.34
		l-2.55,2.53l1.41,1.42l2.55-2.53L17.24,25.34z M14.69,27.88c-1.34,1.33-0.38,3.6,1.49,3.6v-2c-0.04,0-0.06-0.01-0.06-0.02
		c-0.01-0.01-0.03-0.03-0.04-0.05c-0.01-0.03-0.01-0.05-0.01-0.06c0-0.01,0-0.02,0.03-0.05L14.69,27.88z M16.18,31.47h12.87v-2
		H16.18V31.47z M30.06,30.47c0-0.66,0.54-1.21,1.22-1.21v-2c-1.77,0-3.22,1.43-3.22,3.21H30.06z M31.28,29.26
		c0.68,0,1.22,0.55,1.22,1.21h2c0-1.78-1.45-3.21-3.22-3.21V29.26z M32.5,30.47c0,0.66-0.54,1.21-1.22,1.21v2
		c1.77,0,3.22-1.43,3.22-3.21H32.5z M31.98,31.98l-2.22-2.21l-1.41,1.42l2.22,2.21L31.98,31.98z M21.03,33.19
		c0.28-0.47,0.84-0.71,1.38-0.57l0.52-1.93c-1.41-0.37-2.89,0.24-3.62,1.49L21.03,33.19z M22.41,32.62c0.54,0.14,0.9,0.62,0.9,1.17
		h2c0-1.46-0.98-2.73-2.39-3.1L22.41,32.62z M23.31,33.79c0,0.54-0.37,1.03-0.9,1.17l0.52,1.93c1.41-0.37,2.39-1.64,2.39-3.1H23.31z
		 M22.41,34.96c-0.54,0.14-1.1-0.09-1.38-0.57l-1.73,1c0.73,1.26,2.22,1.87,3.62,1.49L22.41,34.96z M21.17,34.89v-2.21h-2v2.21
		H21.17z"/>
	<circle class="st1" cx="33.5" cy="17" r="6"/>
	<path class="st2" d="M36.03,16.53h-2.05v-2.05c0-0.26-0.21-0.47-0.47-0.47c-0.26,0-0.47,0.21-0.47,0.47v2.05h-2.05
		c-0.26,0-0.47,0.21-0.47,0.47c0,0.13,0.05,0.25,0.14,0.33c0.09,0.09,0.2,0.14,0.33,0.14h2.05v2.05c0,0.13,0.05,0.25,0.14,0.33
		c0.09,0.09,0.2,0.14,0.33,0.14c0.26,0,0.47-0.21,0.47-0.47v-2.05h2.05c0.26,0,0.47-0.21,0.47-0.47
		C36.5,16.74,36.29,16.53,36.03,16.53z"/>
</g>
</svg>
