<?xml version="1.0" encoding="utf-8"?>
<!-- Generator: Adobe Illustrator 25.4.1, SVG Export Plug-In . SVG Version: 6.00 Build 0)  -->
<svg version="1.1" id="Capa_1" xmlns="http://www.w3.org/2000/svg" xmlns:xlink="http://www.w3.org/1999/xlink" x="0px" y="0px"
	 viewBox="0 0 23 23" style="enable-background:new 0 0 23 23;" xml:space="preserve">
<style type="text/css">
	.st0{fill:#FFFFFF;}
</style>
<path class="st0" d="M1.5,0c-0.55,0-1,0.45-1,1c0,0.55,0.45,1,1,1V0z M3.72,1L4.7,0.8C4.61,0.34,4.2,0,3.72,0V1z M3.19,3.41
	C3.3,3.95,3.82,4.3,4.36,4.19c0.54-0.11,0.89-0.64,0.78-1.18L3.19,3.41z M5.94,11.05c-0.55,0-1,0.45-1,1c0,0.55,0.45,1,1,1V11.05z
	 M17.06,12.05v1c0.38,0,0.72-0.21,0.89-0.55L17.06,12.05z M21.5,3.21l0.89,0.45c0.16-0.31,0.14-0.68-0.04-0.97s-0.5-0.48-0.85-0.48
	V3.21z M4.17,2.21c-0.55,0-1,0.45-1,1c0,0.55,0.45,1,1,1V2.21z M4.96,12.25c0.11,0.54,0.64,0.89,1.18,0.78s0.89-0.64,0.78-1.18
	L4.96,12.25z M5.15,3.01C5.04,2.47,4.51,2.12,3.97,2.23C3.43,2.34,3.08,2.87,3.19,3.41L5.15,3.01z M6.65,12.76
	c0.39-0.39,0.39-1.02,0-1.41c-0.39-0.39-1.02-0.39-1.41,0L6.65,12.76z M3.4,14.59l-0.71-0.71L3.4,14.59z M17.06,17.47
	c0.55,0,1-0.45,1-1c0-0.55-0.45-1-1-1V17.47z M17.06,16.47h-1c0,0.27,0.11,0.52,0.29,0.71L17.06,16.47z M19.28,18.68l-0.71,0.71
	c0.19,0.19,0.44,0.29,0.71,0.29V18.68z M8.17,18.68l-0.86-0.5c-0.09,0.15-0.14,0.33-0.14,0.5H8.17z M8.17,20.89h-1
	c0,0.18,0.05,0.35,0.14,0.5L8.17,20.89z M1.5,2h2.22V0H1.5V2z M2.74,1.2l0.44,2.21l1.96-0.39L4.7,0.8L2.74,1.2z M5.94,13.05h11.11
	v-2H5.94V13.05z M17.95,12.5l4.44-8.84l-1.79-0.9l-4.44,8.84L17.95,12.5z M21.5,2.21H4.17v2H21.5V2.21z M6.92,11.86L5.15,3.01
	L3.19,3.41l1.78,8.84L6.92,11.86z M5.24,11.34l-2.55,2.53L4.1,15.3l2.55-2.53L5.24,11.34z M2.69,13.88c-1.34,1.33-0.38,3.6,1.49,3.6
	v-2c-0.04,0-0.06-0.01-0.06-0.02c-0.01-0.01-0.03-0.03-0.04-0.05c-0.01-0.03-0.01-0.05-0.01-0.06c0-0.01,0-0.02,0.03-0.05
	L2.69,13.88z M4.18,17.47h12.87v-2H4.18V17.47z M18.06,16.47c0-0.66,0.54-1.21,1.22-1.21v-2c-1.77,0-3.22,1.43-3.22,3.21H18.06z
	 M19.28,15.26c0.68,0,1.22,0.55,1.22,1.21h2c0-1.78-1.45-3.21-3.22-3.21V15.26z M20.5,16.47c0,0.66-0.54,1.21-1.22,1.21v2
	c1.77,0,3.22-1.43,3.22-3.21H20.5z M19.98,17.98l-2.22-2.21l-1.41,1.42l2.22,2.21L19.98,17.98z M9.03,19.19
	c0.28-0.47,0.84-0.71,1.38-0.57l0.52-1.93c-1.41-0.37-2.89,0.24-3.62,1.49L9.03,19.19z M10.41,18.62c0.54,0.14,0.9,0.62,0.9,1.17h2
	c0-1.46-0.98-2.73-2.39-3.1L10.41,18.62z M11.31,19.79c0,0.54-0.37,1.03-0.9,1.17l0.52,1.93c1.41-0.37,2.39-1.64,2.39-3.1H11.31z
	 M10.41,20.96c-0.54,0.14-1.1-0.09-1.38-0.57l-1.73,1c0.73,1.26,2.22,1.87,3.62,1.49L10.41,20.96z M9.17,20.89v-2.21h-2v2.21H9.17z"
	/>
</svg>
