<?xml version="1.0" encoding="utf-8"?>
<!-- Generator: Adobe Illustrator 25.4.1, SVG Export Plug-In . SVG Version: 6.00 Build 0)  -->
<svg version="1.1" id="Capa_1" xmlns="http://www.w3.org/2000/svg" xmlns:xlink="http://www.w3.org/1999/xlink" x="0px" y="0px"
	 viewBox="0 0 14 14" style="enable-background:new 0 0 14 14;" xml:space="preserve">
<style type="text/css">
	.st0{opacity:0.35;}
	.st1{fill:#3F4556;}
</style>
<g class="st0">
	<path class="st1" d="M0.29,12.29c-0.39,0.39-0.39,1.02,0,1.41s1.02,0.39,1.41,0L0.29,12.29z M13.71,1.71
		c0.39-0.39,0.39-1.02,0-1.41s-1.02-0.39-1.41,0L13.71,1.71z M1.71,0.29c-0.39-0.39-1.02-0.39-1.41,0s-0.39,1.02,0,1.41L1.71,0.29z
		 M12.29,13.71c0.39,0.39,1.02,0.39,1.41,0s0.39-1.02,0-1.41L12.29,13.71z M1.71,13.71l12-12l-1.41-1.41l-12,12L1.71,13.71z
		 M0.29,1.71l12,12l1.41-1.41l-12-12L0.29,1.71z"/>
</g>
</svg>
