<?xml version="1.0" encoding="utf-8"?>
<!-- Generator: Adobe Illustrator 25.4.1, SVG Export Plug-In . SVG Version: 6.00 Build 0)  -->
<svg version="1.1" id="Capa_1" xmlns="http://www.w3.org/2000/svg" xmlns:xlink="http://www.w3.org/1999/xlink" x="0px" y="0px"
	 viewBox="0 0 153 153" style="enable-background:new 0 0 153 153;" xml:space="preserve">
<style type="text/css">
	.st0{opacity:0.134;fill:#E5E5E5;enable-background:new    ;}
	.st1{fill-rule:evenodd;clip-rule:evenodd;fill:#14213D;}
</style>
<circle class="st0" cx="76.5" cy="76.5" r="76.5"/>
<path class="st1" d="M117.5,48H77.1h-0.1H36.5C34,48,32,50,32,52.5v48.7c0,2.5,2,4.5,4.5,4.5h37.2H77h40.5c2.5,0,4.5-2,4.5-4.5V52.5
	C122,50,120,48,117.5,48z M76.9,51.4h0.1h38.7L77,81.4l-38.8-30H76.9z M117.5,102.4c0.6,0,1.1-0.5,1.1-1.1V53.8L88.2,77.4l21.1,16.4
	l0,0c0.3,0.3,0.5,0.8,0.5,1.3c0,1-0.8,1.9-1.9,1.9c-0.5,0-1-0.2-1.3-0.5l0,0L85.2,79.7l-6.4,5c-0.5,0.4-1.1,0.7-1.8,0.7
	c-0.7,0-1.3-0.3-1.8-0.7l-6.4-5L47.4,96.4l0,0c-0.3,0.3-0.8,0.5-1.3,0.5c-1,0-1.9-0.8-1.9-1.9c0-0.5,0.2-1,0.5-1.3l0,0l21.1-16.4
	L35.4,53.8v47.5c0,0.6,0.5,1.1,1.1,1.1h37.4h5.7H117.5z"/>
</svg>
