<?xml version="1.0" encoding="utf-8"?>
<!-- Generator: Adobe Illustrator 25.4.1, SVG Export Plug-In . SVG Version: 6.00 Build 0)  -->
<svg version="1.1" id="Capa_1" xmlns="http://www.w3.org/2000/svg" xmlns:xlink="http://www.w3.org/1999/xlink" x="0px" y="0px"
	 viewBox="0 0 25 21" style="enable-background:new 0 0 25 21;" xml:space="preserve">
<style type="text/css">
	.st0{fill:#FFFFFF;}
</style>
<path class="st0" d="M1.32,2.73h22.35c0.18,0,0.32-0.15,0.32-0.32V1.05c0-0.18-0.15-0.32-0.32-0.32H1.32C1.15,0.73,1,0.88,1,1.05
	v1.35C1,2.59,1.15,2.73,1.32,2.73z M1.32,11.5h10.85c0.18,0,0.32-0.15,0.32-0.32V9.82c0-0.18-0.15-0.32-0.32-0.32H1.32
	C1.15,9.5,1,9.65,1,9.82v1.35C1,11.35,1.15,11.5,1.32,11.5z M1.32,20.27h22.35c0.18,0,0.32-0.15,0.32-0.32v-1.35
	c0-0.18-0.15-0.32-0.32-0.32H1.32C1.15,18.27,1,18.41,1,18.59v1.35C1,20.12,1.15,20.27,1.32,20.27z"/>
</svg>
